<svg preserveAspectRatio="none" width="100%" height="100%" overflow="visible" style="display: block;" viewBox="0 0 43 43" fill="none" xmlns="http://www.w3.org/2000/svg">
<g id="Frame">
<path id="Vector" d="M34.5254 9.54958C32.1425 8.43875 29.5625 7.6325 26.875 7.16667C26.8277 7.16734 26.7827 7.18666 26.7496 7.22042C26.4271 7.81167 26.0508 8.58208 25.8 9.17333C22.9494 8.7436 20.0506 8.7436 17.2 9.17333C16.9492 8.56417 16.5729 7.81167 16.2325 7.22042C16.2146 7.18458 16.1608 7.16667 16.1071 7.16667C13.4196 7.6325 10.8575 8.43875 8.45667 9.54958C8.43875 9.54958 8.42083 9.5675 8.40292 9.58542C3.52958 16.8775 2.18583 23.9725 2.84875 30.9958C2.84875 31.0317 2.86667 31.0675 2.9025 31.0854C6.1275 33.4504 9.22708 34.8837 12.2908 35.8333C12.3446 35.8512 12.3983 35.8333 12.4163 35.7975C13.1329 34.8121 13.7779 33.7729 14.3333 32.68C14.3692 32.6083 14.3333 32.5367 14.2617 32.5187C13.2404 32.1246 12.2729 31.6588 11.3233 31.1213C11.2517 31.0854 11.2517 30.9779 11.3054 30.9242C11.5025 30.7808 11.6996 30.6196 11.8967 30.4762C11.9325 30.4404 11.9863 30.4404 12.0221 30.4583C18.1854 33.2712 24.8325 33.2712 30.9242 30.4583C30.96 30.4404 31.0138 30.4404 31.0496 30.4762C31.2467 30.6375 31.4437 30.7808 31.6408 30.9421C31.7125 30.9958 31.7125 31.1033 31.6229 31.1392C30.6912 31.6946 29.7058 32.1425 28.6846 32.5367C28.6129 32.5546 28.595 32.6442 28.6129 32.6979C29.1863 33.7908 29.8313 34.83 30.53 35.8154C30.5838 35.8333 30.6375 35.8512 30.6912 35.8333C33.7729 34.8837 36.8725 33.4504 40.0975 31.0854C40.1333 31.0675 40.1512 31.0317 40.1512 30.9958C40.9396 22.8796 38.8433 15.8383 34.5971 9.58542C34.5792 9.5675 34.5613 9.54958 34.5254 9.54958ZM15.265 26.7137C13.4196 26.7137 11.8788 25.0117 11.8788 22.9154C11.8788 20.8192 13.3838 19.1171 15.265 19.1171C17.1642 19.1171 18.6692 20.8371 18.6513 22.9154C18.6513 25.0117 17.1463 26.7137 15.265 26.7137ZM27.7529 26.7137C25.9075 26.7137 24.3667 25.0117 24.3667 22.9154C24.3667 20.8192 25.8717 19.1171 27.7529 19.1171C29.6521 19.1171 31.1571 20.8371 31.1392 22.9154C31.1392 25.0117 29.6521 26.7137 27.7529 26.7137Z" fill="var(--fill-0, white)"/>
</g>
</svg>
