<svg preserveAspectRatio="none" width="100%" height="100%" overflow="visible" style="display: block;" viewBox="0 0 47 47" fill="none" xmlns="http://www.w3.org/2000/svg">
<g id="Frame">
<path id="Vector" d="M23.5 3.91667C12.69 3.91667 3.91667 12.69 3.91667 23.5C3.91667 34.31 12.69 43.0833 23.5 43.0833C34.31 43.0833 43.0833 34.31 43.0833 23.5C43.0833 12.69 34.31 3.91667 23.5 3.91667ZM32.5867 17.2333C32.2929 20.3275 31.02 27.8475 30.3738 31.3138C30.0996 32.7825 29.5513 33.2721 29.0421 33.3308C27.9063 33.4288 27.0446 32.5867 25.9479 31.8621C24.2246 30.7263 23.2454 30.0213 21.5808 28.9246C19.6421 27.6517 20.8954 26.9467 22.0117 25.8108C22.3054 25.5171 27.3188 20.9542 27.4167 20.5429C27.4303 20.4806 27.4285 20.416 27.4114 20.3545C27.3943 20.2931 27.3625 20.2368 27.3188 20.1904C27.2013 20.0925 27.0446 20.1317 26.9075 20.1513C26.7313 20.1904 23.9896 22.0117 18.6433 25.615C17.86 26.1438 17.155 26.4179 16.5283 26.3983C15.8233 26.3787 14.4917 26.0067 13.4929 25.6737C12.2592 25.2821 11.2996 25.0667 11.3779 24.3813C11.4171 24.0288 11.9067 23.6762 12.8271 23.3042C18.5454 20.8171 22.3446 19.1721 24.2442 18.3888C29.6883 16.1171 30.8046 15.7254 31.5488 15.7254C31.7054 15.7254 32.0775 15.7646 32.3125 15.9604C32.5083 16.1171 32.5671 16.3325 32.5867 16.4892C32.5671 16.6067 32.6062 16.9592 32.5867 17.2333Z" fill="var(--fill-0, white)"/>
</g>
</svg>
